static_grf.mot
version=1
nRows=27
nColumns 19
inDegrees=yes
endheader
time	1_ground_force_vx	1_ground_force_vy	1_ground_force_vz	1_ground_force_px	1_ground_force_py	1_ground_force_pz	1_ground_torque_x	1_ground_torque_y	1_ground_torque_z	2_ground_force_vx	2_ground_force_vy	2_ground_force_vz	2_ground_force_px	2_ground_force_py	2_ground_force_pz	2_ground_torque_x	2_ground_torque_y	2_ground_torque_z
            0.503500	           -3.644498	          419.982813	          -31.941075	           -0.284268	            0.006012	           -0.358383	           -0.023598	            2.719326	           -0.206814	            1.536612	          433.780293	           25.198480	           -0.297074	            0.005437	           -0.704876	           -0.001349	           -0.380939	           -0.022129
            0.504000	           -3.826990	          418.900004	          -31.670122	           -0.284616	            0.006013	           -0.358622	           -0.024133	            2.641594	           -0.199713	            1.539229	          433.044003	           25.101996	           -0.297311	            0.005436	           -0.704831	           -0.001454	           -0.408940	           -0.023705
            0.504500	           -3.781374	          418.900406	          -31.761948	           -0.284463	            0.006014	           -0.358723	           -0.024465	            2.710258	           -0.205498	            1.726005	          433.228486	           25.196429	           -0.296848	            0.005437	           -0.704713	           -0.001632	           -0.409718	           -0.023829
            0.505000	           -3.644513	          419.442182	          -31.989254	           -0.284605	            0.006014	           -0.358699	           -0.023497	            2.704189	           -0.206238	            1.444139	          433.412449	           24.962565	           -0.297050	            0.005438	           -0.705156	           -0.001079	           -0.323908	           -0.018656
            0.505500	           -3.965300	          419.441924	          -31.942597	           -0.284474	            0.006014	           -0.358743	           -0.024834	            2.626942	           -0.200055	            1.539229	          433.044003	           25.101996	           -0.296924	            0.005437	           -0.704700	           -0.001322	           -0.371875	           -0.021556
            0.506000	           -4.056450	          419.621219	          -31.712321	           -0.284374	            0.006013	           -0.358497	           -0.025434	            2.631039	           -0.198837	            1.680485	          432.860036	           25.195135	           -0.297210	            0.005437	           -0.704950	           -0.001524	           -0.392567	           -0.022850
            0.506500	           -3.873923	          419.262296	          -32.081169	           -0.284393	            0.006013	           -0.358531	           -0.024322	            2.632325	           -0.201421	            1.632908	          433.044509	           25.055028	           -0.297014	            0.005437	           -0.704744	           -0.001337	           -0.354529	           -0.020512
            0.507000	           -3.736574	          419.623050	          -32.125817	           -0.284554	            0.006013	           -0.358624	           -0.023715	            2.663266	           -0.203896	            1.677806	          433.596766	           25.150835	           -0.297228	            0.005437	           -0.704995	           -0.001581	           -0.408705	           -0.023707
            0.507500	           -3.827691	          419.622050	          -31.896314	           -0.284522	            0.006014	           -0.358692	           -0.024256	            2.659186	           -0.202130	            1.488433	          434.148405	           25.199814	           -0.296801	            0.005439	           -0.705158	           -0.001325	           -0.386502	           -0.022434
            0.508000	           -3.965171	          419.982358	          -31.848567	           -0.284317	            0.006011	           -0.358108	           -0.024905	            2.637916	           -0.200041	            1.395898	          433.781124	           24.823115	           -0.296950	            0.005437	           -0.704875	           -0.001080	           -0.335632	           -0.019207
            0.508500	           -3.735939	          419.261536	          -31.898087	           -0.284380	            0.006012	           -0.358242	           -0.023505	            2.637820	           -0.200690	            1.490447	          433.595754	           25.244771	           -0.297019	            0.005437	           -0.704907	           -0.001197	           -0.348187	           -0.020272
            0.509000	           -3.782483	          419.983573	          -32.124157	           -0.284472	            0.006013	           -0.358446	           -0.023841	            2.647173	           -0.202480	            1.491091	          433.411781	           25.197186	           -0.297085	            0.005437	           -0.704810	           -0.001324	           -0.384821	           -0.022372
            0.509500	           -3.781815	          419.441762	          -31.897200	           -0.284364	            0.006013	           -0.358601	           -0.023807	            2.640434	           -0.200797	            1.445571	          433.043330	           25.195892	           -0.297231	            0.005436	           -0.704787	           -0.001182	           -0.353956	           -0.020594
            0.510000	           -3.735714	          420.522579	          -31.709253	           -0.284279	            0.006012	           -0.358404	           -0.023314	            2.624447	           -0.197895	            1.398097	          433.226967	           25.290425	           -0.297077	            0.005436	           -0.704754	           -0.001039	           -0.322098	           -0.018803
            0.510500	           -3.872997	          419.801293	          -31.666144	           -0.284335	            0.006012	           -0.358401	           -0.024248	            2.628250	           -0.198252	            1.675771	          434.149584	           25.058950	           -0.297022	            0.005437	           -0.704985	           -0.001389	           -0.359981	           -0.020778
            0.511000	           -3.597954	          419.260776	          -31.715005	           -0.284407	            0.006013	           -0.358536	           -0.022995	            2.679494	           -0.202690	            1.822405	          432.491927	           25.287617	           -0.297262	            0.005435	           -0.704580	           -0.001766	           -0.419219	           -0.024512
            0.511500	           -3.690356	          419.442173	          -31.989140	           -0.284358	            0.006014	           -0.358698	           -0.023026	            2.617091	           -0.199595	            1.490988	          433.412618	           24.962545	           -0.297005	            0.005437	           -0.704809	           -0.001135	           -0.329946	           -0.019003
            0.512000	           -3.552959	          420.163263	          -31.986389	           -0.284237	            0.006013	           -0.358476	           -0.023005	            2.720513	           -0.207109	            1.492359	          433.044002	           25.055088	           -0.297275	            0.005436	           -0.704743	           -0.001213	           -0.352013	           -0.020367
            0.512500	           -3.873551	          420.342907	          -31.847248	           -0.284310	            0.006013	           -0.358420	           -0.024298	            2.636714	           -0.199770	            1.397994	          433.227804	           25.055784	           -0.297291	            0.005437	           -0.705101	           -0.001125	           -0.348715	           -0.020168
            0.513000	           -3.598281	          419.801936	          -31.804398	           -0.284204	            0.006013	           -0.358457	           -0.023030	            2.686898	           -0.203561	            1.398015	          433.227637	           25.102713	           -0.297335	            0.005436	           -0.704884	           -0.001110	           -0.343992	           -0.019932
            0.513500	           -3.551527	          419.800372	          -31.437664	           -0.284300	            0.006012	           -0.358284	           -0.022489	            2.658241	           -0.199068	            1.444865	          433.227806	           25.102693	           -0.297120	            0.005436	           -0.704711	           -0.001089	           -0.326570	           -0.018923
            0.514000	           -3.598233	          420.162271	          -31.756992	           -0.284173	            0.006013	           -0.358586	           -0.022502	            2.627589	           -0.198600	            1.676538	          433.964606	           25.292934	           -0.297083	            0.005437	           -0.704932	           -0.001675	           -0.433506	           -0.025266
            0.514500	           -3.827789	          420.162816	          -31.893995	           -0.284190	            0.006013	           -0.358469	           -0.024131	            2.648816	           -0.201068	            1.631620	          433.412456	           25.150198	           -0.296994	            0.005437	           -0.704811	           -0.001568	           -0.416638	           -0.024177
            0.515000	           -3.597987	          419.441011	          -31.714232	           -0.284658	            0.006014	           -0.358669	           -0.022815	            2.659710	           -0.201103	            1.581386	          434.333553	           25.012719	           -0.296957	            0.005438	           -0.705169	           -0.001145	           -0.314434	           -0.018108
            0.515500	           -3.552423	          420.342576	          -31.756333	           -0.284050	            0.006012	           -0.358363	           -0.022531	            2.665955	           -0.201409	            1.396624	          433.596420	           24.963242	           -0.297145	            0.005436	           -0.704778	           -0.001248	           -0.387386	           -0.022303
            0.516000	           -3.460524	          419.801569	          -31.713027	           -0.284370	            0.006013	           -0.358490	           -0.022196	            2.692663	           -0.203412	            1.722600	          434.149920	           25.012002	           -0.297064	            0.005437	           -0.705029	           -0.001481	           -0.373259	           -0.021504
            0.516500	           -3.506823	          419.802347	          -31.896337	           -0.284103	            0.006012	           -0.358331	           -0.022461	            2.688849	           -0.204297	            1.627674	          434.517026	           25.247997	           -0.296961	            0.005438	           -0.705052	           -0.001507	           -0.402269	           -0.023374
